<svg xmlns="http://www.w3.org/2000/svg" width="276" height="106" viewBox="0 0 138 53"><g fill="none" fill-rule="evenodd"><path fill="#444" d="M43.068 7.05c-.55.777-.98 1.479-.98 1.554 0 .075.358.4.789.702.406.3 1.242 1.078 1.84 1.704l1.052 1.128-1.028 1.103-1.052 1.128 1.124 1.454c.597.803 1.242 1.655 1.41 1.93.31.427.382.427 1.553-.35.67-.426 1.315-.727 1.41-.677.12.075.454.677.789 1.354.335.651.621 1.253.645 1.303.096.176 3.179-1.354 3.179-1.58 0-.124-.382-.952-.86-1.83l-.837-1.578-.645.45c-.359.251-1.028.703-1.506 1.004l-.836.526-1.004-1.48-1.004-1.478 1.314-1.153 1.291-1.179-.645-.902c-.646-.877-3.872-3.91-4.637-4.337-.334-.175-.597.05-1.362 1.203zM39.148 12.464l-.645 1.053.717.652c.86.777.884.978.12 1.73-.741.727-.741.927-.072 1.68l.526.576-.67.727-.669.752.454.627.478.626.813-.727.812-.702-.597-.676-.598-.677 1.865-1.83c1.003-.978 1.84-1.88 1.84-1.956 0-.25-3.179-2.933-3.442-2.933-.143 0-.55.477-.932 1.078z" class="color-1"/><path fill="#6394E8" d="M29.182 2.462v1.905h1.075c.67 0 1.124.125 1.195.301.072.175-.143 2.13-.454 4.337-.31 2.206-.55 4.036-.525 4.06 0 0 .406.101.884.201l.836.15.574-2.531.574-2.557.74.15c.383.076.933.2 1.195.276.43.125.55-.05.956-1.253.24-.777.526-1.454.622-1.504.095-.076.717.125 1.362.4l1.22.527-.718 1.504c-.406.827-.693 1.53-.645 1.554.048.05.478.326.956.627l.884.552.86-1.329c.837-1.278.837-1.329.383-1.654-.454-.326-.454-.402.478-1.98.526-.903.932-1.655.884-1.706-.669-.601-6.86-3.258-7.074-3.008-.048.05-.287.853-.502 1.805l-.43 1.705-.813-.075c-1.195-.126-1.29-.326-.956-2.206.143-.928.263-1.705.215-1.755-.048-.025-.908-.15-1.936-.25l-1.84-.176v1.93z" class="color-2"/><path fill="#444" d="M23.087 1.033c-1.696.376-1.625.3-1.457 1.128.43 2.256.62 2.708 1.218 2.708.478 0 .598.175.813 1.253.143.702.263 1.429.263 1.604 0 .326-2.103.953-2.247.677-.047-.075-.263-.752-.502-1.479-.382-1.253-.454-1.329-1.051-1.203-.335.1-.765.2-.932.225-.191.026-.598-.626-.98-1.629l-.645-1.705-1.482.752c-1.65.803-4.685 2.808-4.924 3.234-.095.15.287.903.837 1.68l1.004 1.379-.813.752-.813.752-1.123-1.279C9.632 9.205 9.082 8.63 9.01 8.63c-.239 0-2.533 2.482-2.533 2.732 0 .1.55.677 1.195 1.254.908.802 1.314 1.027 1.697.902.358-.125.693 0 1.123.426 1.434 1.329 1.386 1.329 2.366.276a32.415 32.415 0 011.697-1.654l.789-.677-.837-1.153c-.478-.652-.86-1.254-.86-1.354 0-.2 1.792-1.504 2.08-1.504.119 0 .501.576.86 1.253.717 1.329.956 1.454 1.697.878.788-.627 1.218-.427 1.768.752.287.626.622 1.128.717 1.128.12 0 .837-.226 1.601-.502 2.056-.727 2.175-.702 2.438.727l.24 1.229-.837.175c-.765.15-.813.2-.67.953.216 1.153.43 1.253 1.84.927.718-.15 1.722-.25 2.247-.2.909.075.956.1.956.952 0 .752.072.878.622.953.573.075.645-.025.74-.827.12-1.078.072-1.128-.836-1.128h-.693l.096-2.257.071-2.256h-1.003c-.909 0-1.028-.075-1.028-.576 0-.301-.072-.978-.143-1.504l-.168-.928h2.462V4.367h-1.53c-1.697 0-1.816-.1-1.816-1.755 0-1.454-.191-1.754-1.052-1.73-.406.026-.956.076-1.219.151z" class="color-1"/><path fill="#6394E8" d="M3.49 15.899c-.479 1.002-.837 1.83-.79 1.88.144.15 3.132 1.379 3.203 1.303.024-.025.407-.727.813-1.529.574-1.153.67-1.554.43-1.704-.167-.1-.86-.527-1.553-.953l-1.243-.777-.86 1.78z" class="color-2"/><path fill="#6394E8" d="M10.707 16.952c-.597.877-1.386 2.23-1.744 3.008-.383.802-.813 1.454-.956 1.454-.168 0-.813-.226-1.434-.527-1.052-.451-1.172-.476-1.434-.1-.263.351-.43.326-1.865-.226l-1.601-.626-.215.601c-.55 1.504-1.625 7.045-1.41 7.245.048.05.86.176 1.792.25l1.721.176.144-1.203c.358-2.632.693-3.835 1.075-3.835.215 0 .884.175 1.506.376l1.147.35.287-1.027c.143-.552.406-1.053.55-1.103.143-.076.764.1 1.362.376l1.075.476.55-1.203c.287-.652.765-1.48 1.052-1.855l.501-.652 1.793 1.253c1.745 1.229 1.792 1.229 2.247.777.239-.275.358-.601.286-.752-.19-.3-4.612-4.311-5.09-4.612-.168-.126-.67.4-1.339 1.379z" class="color-2"/><path fill="#444" d="M6.86 26.803c-.072.226-.144.727-.144 1.129 0 .676.048.726 1.506.877.812.1 1.96.125 2.557.075 1.004-.075 1.075-.125 1.147-.852.072-.802.072-.802-1.434-1.078-3.441-.602-3.465-.602-3.633-.15zM.31 32.168c-.238.15-.262.552-.047 1.93.143.928.31 1.755.358 1.805.048.05.86-.05 1.793-.225 1.625-.301 1.697-.326 1.577-.953a26.789 26.789 0 01-.263-1.73l-.167-1.053H2.103c-.812 0-1.625.1-1.792.226zM8.89 33.346c-.98.176-1.816.376-1.863.452-.048.05.024.576.167 1.153.239.902.335 1.027.789.902.286-.1 1.386-.4 2.461-.677l1.936-.526-.143-.777c-.191-.978-.693-1.053-3.346-.527z" class="color-1"/><path fill="#6394E8" d="M5.712 36.63c-.645.2-1.147.502-1.147.677 0 .176-.717.501-1.673.752-1.028.301-1.673.602-1.673.802 0 .853 2.653 7.12 3.011 7.12.096 0 2.677-1.655 2.916-1.88.048-.05-.095-.426-.31-.878-.216-.45-.36-.827-.311-.852.048-.05.621-.401 1.266-.777.67-.401 1.243-.752 1.291-.777.048-.05-.096-.502-.335-1.003a23.53 23.53 0 01-.812-2.206c-.24-.702-.574-1.304-.765-1.329-.191 0-.836.126-1.458.351z" class="color-2"/><path fill="#444" d="M11.376 42.12c-1.864 1.329-3.322 2.532-3.274 2.708.024.2-.573.852-1.362 1.454l-1.434 1.103 1.482 1.805C8.34 51.07 10.325 53 10.73 53c.12 0 .67-.602 1.243-1.354l1.004-1.378-.813-.753-.789-.752 1.076-1.128 1.052-1.153-.813-.902-.837-.903.956-.852c.526-.451 1.076-.852 1.195-.827.144 0 .502.35.813.752l.574.752-.885.952-.86.928.67.677c.358.376.788.677.907.677.144 0 .909-.878 1.721-1.956l1.434-1.98-.621-.652-.622-.677.693-.752.694-.752-.574-.627-.574-.626-.764.777-.741.752-.574-.752-.574-.752-3.346 2.381z" class="color-1"/><path fill="#444" d="M24.928 49.165l.071 3.208 11.425.075 11.4.05V45.98H24.856l.072 3.185zM24.88 28.684v3.258h22.944v-6.518H24.88v3.26zM24.88 38.836v2.883h22.944v-5.766H24.88v2.883z" class="color-logo-E"/><path fill="#6394E8" d="M51.17 28.684v3.258H69.119l.574.602c.98 1.028 1.099 4.412.19 5.465-.358.426-1.075.451-9.56.451H51.17V52.5H57.623v-7.02h7.48c8.294 0 8.557-.05 10.134-1.754 1.41-1.53 1.53-2.231 1.458-8.649-.071-6.668-.19-7.12-2.246-8.649L73.3 25.55l-11.065-.075L51.17 25.4v3.284z" class="color-logo-P"/><path fill="#444" d="M79.85 28.684v3.258h6.692v-6.518H79.85v3.26zM99.448 30.238c-.024 5.465-.191 6.743-.956 7.62l-.55.602H88.98c-5.402 0-8.89.1-8.843.226.048.125 1.458 1.705 3.13 3.51l3.06 3.283h2.366v7.02h6.692v-7.02h1.147c1.1-.025 1.243-.125 5.139-3.51l3.991-3.509V25.425h-6.214v4.813z" class="color-logo-Y"/><path fill="#444" d="M112.904 26.051c-2.318 1.229-3.585 3.886-3.991 8.323l-.144 1.58h3.346c3.203 0 3.346-.026 3.346-.502 0-.852.693-2.005 1.506-2.507.693-.451 1.243-.501 6.286-.501 5.33 0 5.544.025 6.333.576.574.402.908.903 1.171 1.755l.359 1.178h6.333v-1.228c0-2.833-.98-5.941-2.318-7.395-1.769-1.905-1.697-1.905-11.926-1.905h-9.082l-1.22.626zM108.913 41.92c-.168.275.239 3.91.55 4.938.477 1.655 1.05 2.708 1.983 3.786 1.577 1.78 2.008 1.855 11.71 1.855 5.307 0 8.724-.1 9.394-.276 2.796-.727 4.875-4.613 4.9-9.075v-1.454l-3.156.075-3.154.076-.216.952c-.31 1.329-1.362 2.357-2.629 2.557-.55.1-3.226.125-5.95.075-5.737-.1-5.976-.175-6.693-2.356l-.382-1.228-3.107-.076c-1.72-.025-3.179.025-3.25.15z" class="color-logo-O"/></g></svg>